<svg id="レイヤー_1" data-name="レイヤー 1" xmlns="http://www.w3.org/2000/svg" viewBox="0 0 539.36 441.1"><defs><style>.cls-1{fill:#fff;stroke:#000;stroke-miterlimit:10;stroke-width:3px;}.cls-2,.cls-3,.cls-30,.cls-49{isolation:isolate;}.cls-3,.cls-30,.cls-49{font-size:21.26px;font-family:HiraginoSans-W8-83pv-RKSJ-H, Hiragino Sans;}.cls-4{letter-spacing:-0.02em;}.cls-5{letter-spacing:-0.04em;}.cls-6{letter-spacing:-0.04em;}.cls-7{letter-spacing:-0.01em;}.cls-8{letter-spacing:0em;}.cls-9{letter-spacing:-0.01em;}.cls-10{letter-spacing:-0.01em;}.cls-11,.cls-30{letter-spacing:0em;}.cls-12{letter-spacing:-0.03em;}.cls-13{letter-spacing:-0.04em;}.cls-14{letter-spacing:-0.03em;}.cls-15{letter-spacing:-0.5em;}.cls-16{letter-spacing:-0.01em;}.cls-17{letter-spacing:-0.03em;}.cls-18{letter-spacing:-0.06em;}.cls-19{letter-spacing:0em;}.cls-20{letter-spacing:-0.05em;}.cls-21{letter-spacing:-0.05em;}.cls-22,.cls-49{letter-spacing:-0.01em;}.cls-23{letter-spacing:-0.51em;}.cls-24{letter-spacing:-0.01em;}.cls-25{letter-spacing:-0.06em;}.cls-26{letter-spacing:-0.07em;}.cls-27{letter-spacing:-0.06em;}.cls-28{letter-spacing:-0.02em;}.cls-29{letter-spacing:-0.02em;}.cls-31{letter-spacing:-0.12em;}.cls-32{letter-spacing:-0.04em;}.cls-33{letter-spacing:-0.08em;}.cls-34{letter-spacing:-0.05em;}.cls-35{letter-spacing:-0.1em;}.cls-36{letter-spacing:-0.06em;}.cls-37{letter-spacing:-0.01em;}.cls-38{letter-spacing:-0.06em;}.cls-39{letter-spacing:-0.06em;}.cls-40{letter-spacing:-0.02em;}.cls-41{letter-spacing:-0.02em;}.cls-42{letter-spacing:-0.04em;}.cls-43{letter-spacing:-0.05em;}.cls-44{letter-spacing:-0.08em;}.cls-45{letter-spacing:-0.11em;}.cls-46{letter-spacing:-0.04em;}.cls-47{letter-spacing:-0.05em;}.cls-48{letter-spacing:-0.01em;}.cls-50{letter-spacing:-0.04em;}.cls-51{letter-spacing:-0.04em;}.cls-52{letter-spacing:-0.04em;}.cls-53{letter-spacing:-0.06em;}.cls-54{letter-spacing:-0.05em;}.cls-55{letter-spacing:-0.06em;}.cls-56{letter-spacing:-0.03em;}.cls-57{letter-spacing:-0.05em;}.cls-58{letter-spacing:-0.07em;}.cls-59{letter-spacing:-0.08em;}.cls-60{letter-spacing:-0.05em;}.cls-61{letter-spacing:-0.07em;}.cls-62{letter-spacing:-0.06em;}.cls-63{letter-spacing:0em;}.cls-64{letter-spacing:-0.03em;}.cls-65{letter-spacing:-0.06em;}.cls-66{letter-spacing:-0.03em;}.cls-67{letter-spacing:-0.02em;}.cls-68{letter-spacing:-0.02em;}.cls-69{letter-spacing:0em;}.cls-70{letter-spacing:-0.03em;}.cls-71{letter-spacing:-0.04em;}.cls-72{letter-spacing:-0.08em;}.cls-73{letter-spacing:-0.05em;}</style></defs><path class="cls-1" d="M501.47,115.74C468.23,76.93,396,63,274,63h-2.47V11.72c0-5.58-3.67-7.41-6.92-4.17-3.77,3.77-36.39,36.4-57.19,57.19C125,69.49,73.29,84.6,46.56,115.74c-35,40.79-40.72,89.7-40.72,137.76s5.71,97,40.72,137.83C79.8,430.15,151.92,444.05,274,444.05s194.21-13.9,227.45-52.72c35-40.86,40.72-89.7,40.72-137.83S536.48,156.53,501.47,115.74Z" transform="translate(-4.34 -4.45)"/><g id="コーヒー飲み放題のお店ですが_妥協は一切許さず_コーヒーは私が厳選した_おいしさを追求した豆を_使用しております_こだわりの一杯を_何度もお楽しみください_他にも_心もからだもあったまるようなメニューで_みなさまのご来店をお待ちしております_" data-name="コーヒー飲み放題のお店ですが 妥協は一切許さず コーヒーは私が厳選した おいしさを追求した豆を 使用しております こだわりの一杯を 何度もお楽しみください 他にも 心もからだもあったまるようなメニューで みなさまのご来店をお待ちしております " class="cls-2"><text class="cls-3" transform="translate(40.39 166.8)"><tspan class="cls-4">コ</tspan><tspan class="cls-5" x="20.81" y="0">ー</tspan><tspan class="cls-6" x="41.16" y="0">ヒ</tspan><tspan x="61.57" y="0">ー</tspan><tspan class="cls-7" x="82.84" y="0">飲</tspan><tspan class="cls-8" x="103.93" y="0">み</tspan><tspan x="125.17" y="0">放</tspan><tspan class="cls-9" x="146.43" y="0">題</tspan><tspan class="cls-10" x="167.54" y="0">の</tspan><tspan class="cls-11" x="188.57" y="0">お</tspan><tspan class="cls-12" x="209.75" y="0">店</tspan><tspan class="cls-13" x="230.41" y="0">で</tspan><tspan class="cls-14" x="250.85" y="0">す</tspan><tspan x="271.58" y="0">が</tspan><tspan class="cls-15" x="292.84" y="0">、</tspan><tspan x="303.47" y="0">妥</tspan><tspan class="cls-16" x="324.73" y="0">協</tspan><tspan x="345.89" y="0">は一切</tspan><tspan class="cls-17" x="409.67" y="0">許</tspan><tspan class="cls-18" x="430.31" y="0">さ</tspan><tspan class="cls-19" x="450.26" y="0">ず</tspan></text><text class="cls-3" transform="translate(40.39 202.94)"><tspan class="cls-4">コ</tspan><tspan class="cls-5" x="20.81" y="0">ー</tspan><tspan class="cls-6" x="41.16" y="0">ヒ</tspan><tspan class="cls-16" x="61.57" y="0">ー</tspan><tspan x="82.73" y="0">は私が厳</tspan><tspan class="cls-20" x="167.78" y="0">選</tspan><tspan class="cls-21" x="188" y="0">し</tspan><tspan class="cls-22" x="208.15" y="0">た</tspan><tspan class="cls-23" x="229.22" y="0">、</tspan><tspan class="cls-24" x="239.73" y="0">お</tspan><tspan class="cls-25" x="260.71" y="0">い</tspan><tspan class="cls-26" x="280.78" y="0">し</tspan><tspan class="cls-27" x="300.62" y="0">さ</tspan><tspan class="cls-28" x="320.63" y="0">を</tspan><tspan x="341.48" y="0">追</tspan><tspan class="cls-20" x="362.75" y="0">求</tspan><tspan class="cls-21" x="382.97" y="0">し</tspan><tspan class="cls-22" x="403.12" y="0">た</tspan><tspan class="cls-29" x="424.19" y="0">豆</tspan><tspan class="cls-28" x="445.03" y="0">を</tspan></text><text class="cls-30" transform="translate(41.05 239.09)">使<tspan class="cls-20" x="21.18" y="0">用</tspan><tspan class="cls-31" x="41.4" y="0">し</tspan><tspan class="cls-32" x="60.15" y="0">て</tspan><tspan class="cls-25" x="80.48" y="0">お</tspan><tspan class="cls-33" x="100.55" y="0">り</tspan><tspan class="cls-34" x="120.11" y="0">ま</tspan><tspan class="cls-35" x="140.31" y="0">す</tspan><tspan class="cls-15" x="159.34" y="0">。</tspan></text><text class="cls-3" transform="translate(39.94 275.23)"><tspan class="cls-36">こ</tspan><tspan class="cls-37" x="19.9" y="0">だ</tspan><tspan class="cls-38" x="40.97" y="0">わ</tspan><tspan class="cls-39" x="61" y="0">り</tspan><tspan class="cls-16" x="80.96" y="0">の</tspan><tspan x="102.12" y="0">一</tspan><tspan class="cls-40" x="123.38" y="0">杯</tspan><tspan class="cls-41" x="144.22" y="0">を</tspan><tspan class="cls-15" x="165.08" y="0">、</tspan><tspan x="175.71" y="0">何</tspan><tspan class="cls-40" x="196.97" y="0">度</tspan><tspan class="cls-42" x="217.81" y="0">も</tspan><tspan class="cls-11" x="238.15" y="0">お</tspan><tspan class="cls-20" x="259.33" y="0">楽</tspan><tspan class="cls-43" x="279.55" y="0">し</tspan><tspan class="cls-44" x="299.83" y="0">み</tspan><tspan class="cls-45" x="319.35" y="0">く</tspan><tspan class="cls-46" x="338.32" y="0">だ</tspan><tspan class="cls-47" x="358.77" y="0">さ</tspan><tspan class="cls-48" x="379.01" y="0">い</tspan><tspan class="cls-15" x="400.13" y="0">。</tspan></text><text class="cls-49" transform="translate(41.05 311.38)">他<tspan class="cls-50" x="21.07" y="0">にも</tspan><tspan class="cls-15" x="62.02" y="0">、</tspan><tspan class="cls-29" x="72.65" y="0">心</tspan><tspan class="cls-51" x="93.49" y="0">も</tspan><tspan class="cls-52" x="113.96" y="0">か</tspan><tspan class="cls-53" x="134.33" y="0">ら</tspan><tspan class="cls-17" x="154.32" y="0">だ</tspan><tspan class="cls-54" x="174.96" y="0">も</tspan><tspan class="cls-53" x="195.12" y="0">あ</tspan><tspan class="cls-55" x="215.11" y="0">っ</tspan><tspan class="cls-56" x="235.16" y="0">た</tspan><tspan class="cls-57" x="255.67" y="0">ま</tspan><tspan class="cls-58" x="275.79" y="0">る</tspan><tspan class="cls-59" x="295.45" y="0">よ</tspan><tspan class="cls-60" x="315.06" y="0">う</tspan><tspan class="cls-17" x="335.34" y="0">な</tspan><tspan class="cls-61" x="355.99" y="0">メ</tspan><tspan class="cls-62" x="375.74" y="0">ニ</tspan><tspan class="cls-57" x="395.66" y="0">ュ</tspan><tspan class="cls-12" x="415.77" y="0">ー</tspan><tspan class="cls-24" x="436.44" y="0">で</tspan></text><text class="cls-3" transform="translate(40.88 347.52)"><tspan class="cls-63">み</tspan><tspan class="cls-64" x="21.22" y="0">な</tspan><tspan class="cls-65" x="41.78" y="0">さ</tspan><tspan class="cls-66" x="61.66" y="0">ま</tspan><tspan class="cls-57" x="82.26" y="0">の</tspan><tspan class="cls-67" x="102.38" y="0">ご</tspan><tspan x="123.13" y="0">来</tspan><tspan class="cls-40" x="144.39" y="0">店</tspan><tspan class="cls-68" x="165.23" y="0">を</tspan><tspan class="cls-69" x="185.96" y="0">お</tspan><tspan class="cls-70" x="207.13" y="0">待</tspan><tspan class="cls-44" x="227.76" y="0">ち</tspan><tspan class="cls-31" x="247.27" y="0">し</tspan><tspan class="cls-71" x="266.03" y="0">て</tspan><tspan class="cls-25" x="286.35" y="0">お</tspan><tspan class="cls-72" x="306.42" y="0">り</tspan><tspan class="cls-73" x="325.99" y="0">ま</tspan><tspan class="cls-35" x="346.18" y="0">す</tspan><tspan class="cls-15" x="365.21" y="0">。</tspan></text></g></svg>